<svg width="19" height="27" viewBox="0 0 19 27" fill="none" xmlns="http://www.w3.org/2000/svg">
<path d="M9.932 18.704C12.791 18.704 15.116 16.3777 15.116 13.52V5.744C15.116 2.88502 12.791 0.559998 9.932 0.559998C7.07302 0.559998 4.748 2.88502 4.748 5.744V13.52C4.748 16.3777 7.07302 18.704 9.932 18.704ZM19.004 13.52V10.928C19.004 10.5843 18.8675 10.2546 18.6244 10.0116C18.3814 9.76854 18.0517 9.632 17.708 9.632C17.3643 9.632 17.0346 9.76854 16.7916 10.0116C16.5485 10.2546 16.412 10.5843 16.412 10.928V13.52C16.412 17.0931 13.5051 20 9.932 20C6.35893 20 3.452 17.0931 3.452 13.52V10.928C3.452 10.5843 3.31546 10.2546 3.07241 10.0116C2.82936 9.76854 2.49972 9.632 2.156 9.632C1.81228 9.632 1.48264 9.76854 1.23959 10.0116C0.996543 10.2546 0.860001 10.5843 0.860001 10.928V13.52C0.860001 18.0819 4.24645 21.8559 8.636 22.4883V23.888H4.748C4.40428 23.888 4.07464 24.0245 3.83159 24.2676C3.58854 24.5106 3.452 24.8403 3.452 25.184C3.452 25.5277 3.58854 25.8574 3.83159 26.1004C4.07464 26.3435 4.40428 26.48 4.748 26.48H15.116C15.4597 26.48 15.7894 26.3435 16.0324 26.1004C16.2755 25.8574 16.412 25.5277 16.412 25.184C16.412 24.8403 16.2755 24.5106 16.0324 24.2676C15.7894 24.0245 15.4597 23.888 15.116 23.888H11.228V22.4883C15.6176 21.8559 19.004 18.0819 19.004 13.52Z" fill="#8B88EF"/>
</svg>
